<svg width="50" height="50" viewBox="0 0 50 50" fill="none" xmlns="http://www.w3.org/2000/svg">
<rect width="50" height="50" rx="25" fill="#00BBE4"/>
<path d="M25.5 22.75C25.0692 22.75 24.648 22.6222 24.2898 22.3828C23.9316 22.1434 23.6524 21.8031 23.4876 21.4051C23.3227 21.007 23.2796 20.569 23.3636 20.1465C23.4477 19.7239 23.6552 19.3358 23.9598 19.0311C24.2645 18.7265 24.6526 18.519 25.0752 18.4349C25.4978 18.3509 25.9357 18.394 26.3338 18.5588C26.7319 18.7237 27.0721 19.0029 27.3115 19.3611C27.5509 19.7193 27.6787 20.1405 27.6787 20.5713C27.6787 20.7702 27.5997 20.961 27.459 21.1016C27.3184 21.2423 27.1276 21.3213 26.9287 21.3213C26.7298 21.3213 26.539 21.2423 26.3984 21.1016C26.2577 20.961 26.1787 20.7702 26.1787 20.5713C26.1787 20.4371 26.1389 20.3058 26.0643 20.1942C25.9898 20.0826 25.8838 19.9956 25.7597 19.9443C25.6357 19.8929 25.4993 19.8794 25.3676 19.9056C25.2359 19.9318 25.115 19.9965 25.0201 20.0914C24.9252 20.1863 24.8605 20.3072 24.8343 20.4389C24.8082 20.5705 24.8216 20.707 24.873 20.831C24.9243 20.955 25.0113 21.061 25.1229 21.1356C25.2345 21.2102 25.3658 21.25 25.5 21.25C25.6989 21.25 25.8897 21.329 26.0303 21.4697C26.171 21.6103 26.25 21.8011 26.25 22C26.25 22.1989 26.171 22.3897 26.0303 22.5303C25.8897 22.671 25.6989 22.75 25.5 22.75Z" fill="white"/>
<path d="M25.5 25.6069C24.9224 25.6063 24.3687 25.3767 23.9603 24.9683C23.5518 24.56 23.322 24.0063 23.3213 23.4287C23.3213 23.2298 23.4003 23.039 23.541 22.8984C23.6816 22.7577 23.8724 22.6787 24.0713 22.6787C24.2702 22.6787 24.461 22.7577 24.6016 22.8984C24.7423 23.039 24.8213 23.2298 24.8213 23.4287C24.8213 23.563 24.8611 23.6942 24.9357 23.8058C25.0103 23.9174 25.1162 24.0044 25.2403 24.0558C25.3643 24.1071 25.5008 24.1206 25.6324 24.0944C25.7641 24.0682 25.885 24.0036 25.9799 23.9086C26.0748 23.8137 26.1395 23.6928 26.1657 23.5611C26.1919 23.4295 26.1784 23.293 26.127 23.169C26.0757 23.045 25.9887 22.939 25.8771 22.8644C25.7655 22.7898 25.6342 22.75 25.5 22.75C25.3011 22.75 25.1103 22.671 24.9697 22.5303C24.829 22.3897 24.75 22.1989 24.75 22C24.75 21.8011 24.829 21.6103 24.9697 21.4697C25.1103 21.329 25.3011 21.25 25.5 21.25C25.7865 21.2494 26.0703 21.3053 26.3351 21.4145C26.5999 21.5237 26.8406 21.6841 27.0434 21.8864C27.2462 22.0888 27.4071 22.3291 27.5169 22.5937C27.6266 22.8583 27.6831 23.142 27.6831 23.4285C27.6831 23.7149 27.6266 23.9986 27.5169 24.2632C27.4071 24.5278 27.2462 24.7682 27.0434 24.9705C26.8406 25.1729 26.5999 25.3332 26.3351 25.4425C26.0703 25.5517 25.7865 25.6075 25.5 25.6069Z" fill="white"/>
<path d="M25.5 19.8931C25.3011 19.893 25.1104 19.814 24.9697 19.6733C24.8291 19.5327 24.7501 19.342 24.75 19.1431V18C24.75 17.8011 24.829 17.6103 24.9697 17.4697C25.1103 17.329 25.3011 17.25 25.5 17.25C25.6989 17.25 25.8897 17.329 26.0303 17.4697C26.171 17.6103 26.25 17.8011 26.25 18V19.1431C26.2499 19.342 26.1709 19.5327 26.0303 19.6733C25.8896 19.814 25.6989 19.893 25.5 19.8931Z" fill="white"/>
<path d="M25.5 26.75C25.3011 26.75 25.1104 26.6709 24.9697 26.5303C24.8291 26.3896 24.7501 26.1989 24.75 26V24.8569C24.75 24.7584 24.7694 24.6609 24.8071 24.5699C24.8448 24.4789 24.9 24.3962 24.9697 24.3266C25.0393 24.257 25.122 24.2017 25.213 24.164C25.304 24.1263 25.4015 24.1069 25.5 24.1069C25.5985 24.1069 25.696 24.1263 25.787 24.164C25.878 24.2017 25.9607 24.257 26.0303 24.3266C26.1 24.3962 26.1552 24.4789 26.1929 24.5699C26.2306 24.6609 26.25 24.7584 26.25 24.8569V26C26.2499 26.1989 26.1709 26.3896 26.0303 26.5303C25.8896 26.6709 25.6989 26.75 25.5 26.75Z" fill="white"/>
<path d="M32.3096 26.3799C32.1836 26.3798 32.0598 26.348 31.9494 26.2874C31.8389 26.2269 31.7455 26.1395 31.6777 26.0334C31.6099 25.9273 31.5699 25.8058 31.5614 25.6802C31.5529 25.5545 31.5761 25.4288 31.6289 25.3145C32.0395 24.4331 32.2515 23.4723 32.25 22.5C32.25 20.7098 31.5388 18.9929 30.273 17.727C29.0071 16.4612 27.2902 15.75 25.5 15.75C23.7098 15.75 21.9929 16.4612 20.727 17.727C19.4612 18.9929 18.75 20.7098 18.75 22.5C18.75 22.6989 18.671 22.8897 18.5303 23.0303C18.3897 23.171 18.1989 23.25 18 23.25C17.8011 23.25 17.6103 23.171 17.4697 23.0303C17.329 22.8897 17.25 22.6989 17.25 22.5C17.25 20.312 18.1192 18.2135 19.6664 16.6664C21.2135 15.1192 23.312 14.25 25.5 14.25C27.688 14.25 29.7865 15.1192 31.3336 16.6664C32.8808 18.2135 33.75 20.312 33.75 22.5C33.7518 23.6902 33.4924 24.8663 32.9902 25.9453C32.93 26.0751 32.834 26.185 32.7134 26.262C32.5928 26.339 32.4527 26.3799 32.3096 26.3799Z" fill="white"/>
<path d="M26.2822 35.75H16C15.536 35.7494 15.0913 35.5649 14.7632 35.2368C14.4351 34.9087 14.2506 34.4639 14.25 34V27C14.2506 26.536 14.4351 26.0912 14.7632 25.7632C15.0913 25.4351 15.536 25.2505 16 25.25H20.4463C20.8136 25.2499 21.1772 25.3233 21.5156 25.466C21.8541 25.6087 22.1605 25.8178 22.4168 26.0808C22.6731 26.3439 22.8742 26.6556 23.008 26.9977C23.1419 27.3397 23.2059 27.7051 23.1963 28.0722L23.1699 29.0498H23.9316C24.5002 29.0497 25.0588 28.9006 25.5518 28.6172L31.6143 25.1313C32.2476 24.7672 32.9943 24.6534 33.7073 24.8122C34.4204 24.9709 35.0482 25.3908 35.4673 25.9892C35.8863 26.5876 36.0662 27.3211 35.9716 28.0455C35.877 28.7699 35.5147 29.4326 34.9561 29.9033L29.3438 34.6328C28.4864 35.3538 27.4024 35.7493 26.2822 35.75ZM16 26.75C15.9337 26.7501 15.8702 26.7765 15.8234 26.8233C15.7765 26.8702 15.7501 26.9337 15.75 27V34C15.7501 34.0662 15.7765 34.1298 15.8234 34.1766C15.8702 34.2235 15.9337 34.2498 16 34.25H26.2822C27.0487 34.2496 27.7905 33.9788 28.377 33.4853L33.9893 28.7558C34.2613 28.5267 34.4378 28.204 34.4839 27.8513C34.53 27.4985 34.4425 27.1413 34.2384 26.8499C34.0344 26.5585 33.7287 26.354 33.3815 26.2767C33.0343 26.1994 32.6707 26.2548 32.3623 26.4321L26.2998 29.918C25.579 30.3315 24.7626 30.5494 23.9316 30.5498H20.1787C19.9798 30.5498 19.789 30.4708 19.6484 30.3301C19.5077 30.1895 19.4287 29.9987 19.4287 29.7998C19.4287 29.6009 19.5077 29.4101 19.6484 29.2695C19.789 29.1288 19.9798 29.0498 20.1787 29.0498H21.6699L21.6963 28.0332C21.7006 27.8663 21.6715 27.7002 21.6106 27.5448C21.5498 27.3893 21.4584 27.2476 21.3419 27.128C21.2254 27.0084 21.0861 26.9134 20.9323 26.8484C20.7785 26.7835 20.6132 26.7501 20.4463 26.75L16 26.75Z" fill="white"/>
</svg>
