<svg width="142" height="40" viewBox="0 0 142 40" fill="none" xmlns="http://www.w3.org/2000/svg">
<g clip-path="url(#clip0_4008_163)">
<mask id="mask0_4008_163" style="mask-type:luminance" maskUnits="userSpaceOnUse" x="0" y="-1" width="142" height="42">
<path d="M0.649414 40.0002H141.122V-0.00403817H0.649414V40.0002Z" fill="white"/>
</mask>
<g mask="url(#mask0_4008_163)">
<path d="M125.403 5.56597C125.216 5.53482 125.023 5.50225 124.829 5.47394L124.598 5.43996C124.274 5.39606 123.943 5.35784 123.61 5.32527C123.384 5.30545 123.159 5.28987 122.932 5.27571C122.53 5.25023 122.133 5.24032 121.75 5.24032C121.577 5.24032 121.476 5.24173 121.305 5.24598C120.984 5.25164 120.672 5.26722 120.362 5.28563C120.188 5.29695 120.014 5.31111 119.843 5.32668C119.588 5.34934 119.34 5.37766 119.092 5.40881L118.887 5.43712L118.66 5.46827L118.377 5.51358C118.255 5.53482 118.134 5.55606 118.013 5.5773C117.845 5.60844 117.68 5.64243 117.516 5.67641C116.507 5.8902 115.574 6.17338 114.714 6.50895C114.27 6.6831 113.842 6.87 113.436 7.06822C113.099 7.23388 112.773 7.4052 112.462 7.58501C112.159 7.75917 111.867 7.93615 111.587 8.12305C111.428 8.23065 111.268 8.33968 111.115 8.4487C110.983 8.54639 110.85 8.63984 110.723 8.73895C110.455 8.94567 110.195 9.15806 109.953 9.37468C109.725 9.57574 109.501 9.77962 109.296 9.98634C109.119 10.1633 108.94 10.3431 108.772 10.5329C108.602 10.7226 108.432 10.9152 108.271 11.1162C108.094 11.3343 107.919 11.558 107.752 11.7888C107.631 11.9587 107.51 12.1342 107.394 12.3112C107.316 12.4302 107.24 12.5533 107.162 12.6751C106.72 13.3986 106.331 14.1759 106.012 15.0028C105.614 16.035 105.326 17.145 105.168 18.3259C105.119 18.6982 105.081 19.0763 105.058 19.4614C105.041 19.7573 105.03 20.0589 105.03 20.3633C105.03 20.5913 105.031 20.8164 105.045 21.0387C105.062 21.2709 105.079 21.5003 105.106 21.7282L105.124 21.8882C105.157 22.1587 105.201 22.4248 105.252 22.6882C105.27 22.7901 105.292 22.8907 105.313 22.9926C105.36 23.2121 105.41 23.4287 105.469 23.6397C105.542 23.9158 105.621 24.1848 105.711 24.4495C105.82 24.7752 105.936 25.0924 106.066 25.3996C106.271 25.8895 106.494 26.3596 106.737 26.8027C106.879 27.0618 107.026 27.3153 107.177 27.5574C107.298 27.7514 107.424 27.9383 107.548 28.1195C107.716 28.3616 107.888 28.591 108.057 28.8105C108.237 29.0441 108.425 29.2621 108.605 29.4703C108.831 29.7322 109.059 29.9686 109.279 30.1867L109.398 30.3056C109.582 30.4798 109.78 30.6709 110.006 30.8649C110.162 30.9966 110.324 31.1353 110.499 31.2727C110.662 31.4001 110.83 31.5318 111.01 31.6606C111.225 31.815 111.449 31.9707 111.69 32.1264C111.943 32.2879 112.21 32.4521 112.493 32.6107C113.055 32.925 113.675 33.2266 114.356 33.4998C114.612 33.6032 114.874 33.6995 115.149 33.7943C115.418 33.8864 115.694 33.9728 115.981 34.0549C116.471 34.195 116.985 34.3196 117.525 34.4244C117.961 34.508 118.412 34.5787 118.881 34.6354C119.346 34.6906 119.827 34.7331 120.325 34.76C120.567 34.7699 120.815 34.7812 121.064 34.784C121.178 34.7855 121.295 34.7897 121.41 34.7897C122.305 34.7897 123.132 34.7557 123.898 34.692L124.046 34.6779C124.354 34.651 124.647 34.6184 124.934 34.5844C125.372 34.5292 125.789 34.4641 126.184 34.3947C126.436 34.3494 126.678 34.2998 126.916 34.2488C127.283 34.171 127.63 34.086 127.963 33.9982C128.206 33.9317 128.444 33.8637 128.672 33.7958C128.944 33.7136 129.209 33.6244 129.458 33.5409L129.701 33.456C129.82 33.4135 129.984 33.354 130.178 33.2776C130.433 33.1784 130.742 33.0567 131.095 32.9066C131.303 32.816 131.531 32.714 131.764 32.6093C131.971 32.513 132.19 32.4082 132.408 32.302C132.5 32.2553 132.595 32.2128 132.689 32.1661V26.7093C132.625 26.7489 132.559 26.79 132.495 26.8282L132.121 27.0533C131.747 27.2799 131.388 27.4923 131.025 27.6891C130.629 27.9043 130.244 28.1039 129.86 28.2837C129.185 28.6009 128.539 28.8699 127.912 29.095C126.724 29.5198 125.631 29.7917 124.668 29.9616C124.555 29.9814 124.44 29.9998 124.331 30.0168C124.063 30.0578 123.81 30.0904 123.566 30.1159C123.185 30.1584 122.833 30.1796 122.514 30.1952C122.308 30.2051 122.114 30.2079 121.935 30.2079C121.549 30.2079 121.149 30.198 120.744 30.1697C120.27 30.1343 119.786 30.0819 119.299 30.0012C118.51 29.8681 117.719 29.6685 116.943 29.3881C116.828 29.3442 116.713 29.3004 116.6 29.255C116.527 29.2253 116.449 29.1927 116.376 29.163C116.249 29.1092 116.124 29.054 115.998 28.9959C115.734 28.8699 115.467 28.7326 115.208 28.5882C115.082 28.5145 114.958 28.4395 114.823 28.3574C114.694 28.2738 114.566 28.1903 114.438 28.1025C114.281 27.9921 114.121 27.8774 113.967 27.7585C113.819 27.6395 113.666 27.5163 113.539 27.4045L113.359 27.2417L113.27 27.161L113.216 27.11L113.15 27.0463C112.906 26.8027 112.681 26.5564 112.477 26.3114C112.361 26.1727 112.253 26.0325 112.15 25.8937C112.052 25.7607 111.959 25.6233 111.87 25.4888C111.788 25.3614 111.708 25.2311 111.633 25.1037C111.52 24.9125 111.418 24.7186 111.323 24.5288C111.242 24.366 111.167 24.2004 111.099 24.0418C110.983 23.7671 110.883 23.4882 110.798 23.2276C110.731 23.0223 110.678 22.817 110.628 22.6216C110.485 22.051 110.41 21.5314 110.367 21.0883C110.353 20.9183 110.341 20.7598 110.335 20.6139C110.325 20.3959 110.322 20.2076 110.322 20.0547C110.322 19.9555 110.324 19.8409 110.328 19.7092C110.339 19.3963 110.365 19.0012 110.43 18.5524C110.469 18.2777 110.526 17.9846 110.598 17.6788C110.646 17.4749 110.704 17.2696 110.77 17.0544C110.828 16.8604 110.9 16.665 110.975 16.464C111.026 16.3295 111.082 16.1936 111.142 16.059C111.221 15.8722 111.312 15.6895 111.408 15.5012C111.48 15.361 111.56 15.2223 111.64 15.0807C111.822 14.7706 112.023 14.4619 112.253 14.1561C112.337 14.0457 112.423 13.9352 112.513 13.8276C112.629 13.6875 112.749 13.543 112.876 13.4085C112.943 13.3377 113.005 13.2669 113.073 13.199C114.073 12.1994 115.198 11.4518 116.362 10.9208C116.542 10.8387 116.728 10.7637 116.909 10.6915C117.097 10.6178 117.277 10.5541 117.467 10.4904C117.666 10.421 117.873 10.3601 118.076 10.3035C118.265 10.2497 118.459 10.2016 118.65 10.1591C118.842 10.1124 119.035 10.0755 119.227 10.0416C119.436 10.0005 119.649 9.96935 119.855 9.94245C120.068 9.91272 120.277 9.8929 120.484 9.87307C120.882 9.84051 121.273 9.82068 121.651 9.82068C121.779 9.82068 121.905 9.82069 122.03 9.82352C122.313 9.8306 122.589 9.84051 122.858 9.8575C123.047 9.87024 123.228 9.88298 123.411 9.89856C123.755 9.93112 124.085 9.9736 124.4 10.0217C124.681 10.0642 124.951 10.1124 125.204 10.1619C125.597 10.2398 125.955 10.3276 126.275 10.4097C126.484 10.4663 126.677 10.523 126.853 10.5739C127.117 10.6546 127.342 10.724 127.518 10.7849C127.821 10.8897 127.988 10.9506 127.988 10.9506C128.256 11.0454 128.516 11.1516 128.777 11.255C129.122 11.3937 129.452 11.5438 129.771 11.6882C130.035 11.8057 130.285 11.9303 130.521 12.045C130.716 12.1399 130.896 12.2362 131.069 12.324C131.366 12.4783 131.618 12.6185 131.827 12.7317L132.383 13.0347V7.67563C132.383 7.67563 132.049 7.53829 131.47 7.32024C131.215 7.22396 130.915 7.10928 130.572 6.98893C130.382 6.92238 130.181 6.84876 129.969 6.77655C129.799 6.72133 129.623 6.65903 129.442 6.59956C129.238 6.53443 129.027 6.46505 128.809 6.39851C128.651 6.35178 128.488 6.30223 128.324 6.2555L128.179 6.21444C128.019 6.16772 127.859 6.12383 127.695 6.07852C127.501 6.02613 127.303 5.97657 127.103 5.9256C126.976 5.89587 126.848 5.86472 126.717 5.83499C126.504 5.78543 126.289 5.73729 126.074 5.6934C125.853 5.64809 125.628 5.60703 125.403 5.56597ZM98.6213 0.000149361H141.132V40.0044H98.6213V0.000149361Z" fill="white"/>
<path d="M65.9498 22.0609V29.9219H71.0541C71.0541 29.9219 71.156 29.919 71.3231 29.9148C71.4958 29.9077 71.7394 29.8992 72.0324 29.8723C72.5889 29.8213 73.3166 29.7208 74.0246 29.4815C74.666 29.2649 75.289 28.9407 75.7661 28.4649C75.9488 28.2823 76.1017 28.0897 76.2234 27.8972C76.6241 27.2671 76.7247 26.6243 76.7473 26.2618C76.7601 26.1047 76.7586 26.0112 76.7586 26.0112C76.7586 26.0112 76.7601 25.9418 76.7586 25.8187C76.7516 25.6672 76.7346 25.3727 76.6539 25.0569C76.5576 24.6845 76.3778 24.2527 76.0578 23.8562C75.9969 23.7812 75.9318 23.7062 75.8596 23.6354C75.718 23.4952 75.5679 23.3593 75.4008 23.2361C75.1219 23.0308 74.8033 22.8552 74.455 22.7051C73.9977 22.5069 73.4837 22.3582 72.9188 22.2521C72.6314 22.1997 72.3255 22.1544 72.0126 22.1246C71.8186 22.1076 71.6261 22.0921 71.4236 22.0807C71.2495 22.0708 71.0668 22.0623 70.8856 22.0623C69.0733 22.0623 65.9498 22.0609 65.9498 22.0609Z" fill="white"/>
<path d="M65.9498 10.0969V17.55H68.422C68.422 17.55 68.5862 17.55 68.8042 17.543C68.9741 17.5373 69.1794 17.5274 69.3607 17.5175C69.869 17.4793 70.5727 17.407 71.2749 17.2117C71.4123 17.1734 71.551 17.1295 71.687 17.0828C72.2392 16.886 72.7659 16.5986 73.1765 16.1951C73.505 15.8736 73.7202 15.5154 73.8632 15.1671C74.0387 14.7395 74.0996 14.3318 74.1251 14.0429C74.1492 13.7852 74.1478 13.621 74.1478 13.621C74.1478 13.621 74.152 13.4978 74.1421 13.3052C74.1251 12.9796 74.0572 12.4515 73.8009 11.9432C73.6777 11.6996 73.5092 11.4646 73.2784 11.2395C73.0009 10.9648 72.6639 10.7524 72.3015 10.5938C71.6048 10.288 70.8077 10.1648 70.138 10.1195C69.8463 10.0997 69.5801 10.0969 69.3536 10.0969H65.9498Z" fill="white"/>
<path d="M60.7819 5.60849V34.4188H71.6275C71.6275 34.4188 76.9158 34.5661 79.8368 31.6465C82.2141 29.2692 82.0413 26.5182 82.0413 26.5182C82.0413 26.5182 82.2141 23.6468 80.0124 21.4465C78.1377 19.5705 75.7435 19.0707 75.7435 19.0707C75.7435 19.0707 76.8252 18.5638 77.6563 17.7327C78.0457 17.3447 79.429 16.0917 79.429 13.0588C79.429 10.0005 77.393 8.24203 77.393 8.24203C77.393 8.24203 75.1644 5.60849 70.1324 5.60849H60.7819ZM49.6304 0.000193034H92.1394V40.0059H49.6304V0.000193034Z" fill="white"/>
<path d="M16.9604 22.0609V29.9219H22.0647C22.0647 29.9219 22.1666 29.919 22.3337 29.9148C22.5064 29.9077 22.75 29.8992 23.0431 29.8723C23.5995 29.8213 24.3273 29.7208 25.0352 29.4815C25.6766 29.2649 26.2996 28.9407 26.7767 28.4649C26.9594 28.2823 27.1123 28.0897 27.2327 27.8972C27.6348 27.2671 27.7353 26.6243 27.7579 26.2618C27.7693 26.1047 27.7693 26.0112 27.7693 26.0112C27.7693 26.0112 27.7707 25.9418 27.7693 25.8187C27.7622 25.6672 27.7452 25.3727 27.6631 25.0569C27.5682 24.6845 27.3884 24.2527 27.0684 23.8562C27.0075 23.7812 26.9424 23.7062 26.8702 23.6354C26.7286 23.4952 26.5785 23.3593 26.4114 23.2361C26.1311 23.0308 25.8139 22.8552 25.4656 22.7051C25.0083 22.5069 24.4929 22.3582 23.9294 22.2521C23.642 22.1997 23.3362 22.1544 23.0232 22.1246C22.8293 22.1076 22.6367 22.0921 22.4342 22.0807C22.2601 22.0708 22.0774 22.0623 21.8962 22.0623C20.0839 22.0623 16.9604 22.0609 16.9604 22.0609Z" fill="white"/>
<path d="M16.9604 10.0969V17.55H19.4326C19.4326 17.55 19.5968 17.55 19.8149 17.543C19.9848 17.5373 20.1901 17.5274 20.3713 17.5175C20.8796 17.4793 21.5833 17.407 22.2856 17.2117C22.4229 17.1734 22.5617 17.1295 22.6976 17.0828C23.2498 16.886 23.7765 16.5986 24.1871 16.1951C24.5156 15.8736 24.7308 15.5154 24.8738 15.1671C25.0494 14.7395 25.1102 14.3318 25.1357 14.0429C25.1598 13.7852 25.1584 13.621 25.1584 13.621C25.1584 13.621 25.1626 13.4978 25.1527 13.3052C25.1357 12.9796 25.0678 12.4515 24.8115 11.9432C24.6883 11.6996 24.5198 11.4646 24.2905 11.2395C24.0115 10.9648 23.6745 10.7524 23.3121 10.5938C22.6155 10.288 21.8183 10.1648 21.1486 10.1195C20.8569 10.0997 20.5908 10.0969 20.3642 10.0969H16.9604Z" fill="white"/>
<path d="M11.8066 5.60849V34.4188H22.6522C22.6522 34.4188 27.9406 34.5661 30.8615 31.6465C33.2388 29.2692 33.066 26.5182 33.066 26.5182C33.066 26.5182 33.2388 23.6468 31.0371 21.4465C29.1625 19.5705 26.7682 19.0707 26.7682 19.0707C26.7682 19.0707 27.8499 18.5638 28.6811 17.7327C29.0704 17.3447 30.4537 16.0917 30.4537 13.0588C30.4537 10.0005 28.4177 8.24203 28.4177 8.24203C28.4177 8.24203 26.1891 5.60849 21.1571 5.60849H11.8066ZM0.655151 0.000193034H43.1641V40.0059H0.655151V0.000193034Z" fill="white"/>
</g>
</g>
<defs>
<clipPath id="clip0_4008_163">
<rect width="140.467" height="40" fill="white" transform="translate(0.655151)"/>
</clipPath>
</defs>
</svg>
