<svg width="279" height="40" viewBox="0 0 279 40" fill="none" xmlns="http://www.w3.org/2000/svg">
<path d="M42.3995 20C42.4755 24.7056 40.6019 29.2327 37.2234 32.5088C33.9516 35.8474 29.4472 37.6888 24.7732 37.5972C20.08 37.6672 15.5661 35.7996 12.2932 32.4351C5.40956 25.575 5.38976 14.4329 12.2504 7.54875C12.265 7.53423 12.2787 7.51997 12.2932 7.50545C15.5756 4.16263 20.0887 2.31697 24.7732 2.40224C29.4577 2.33017 33.964 4.19827 37.2234 7.56406C40.5895 10.8187 42.462 15.3184 42.3995 20ZM41.3295 20C39.9653 16.9581 37.7564 14.3719 34.9648 12.5503C31.9428 10.4876 28.3581 9.40707 24.6996 9.45617C21.0434 9.42238 17.4629 10.5011 14.4343 12.5503C11.6863 14.3975 9.51219 16.9782 8.15811 20C11.1176 26.4623 17.5915 30.5889 24.6996 30.5438C31.8295 30.5905 38.3298 26.4686 41.3295 20ZM34.1435 20C34.1353 25.1718 29.9451 29.3626 24.7732 29.3703C19.6141 29.361 15.4391 25.1713 15.4486 20.0124C15.4578 14.8532 19.6476 10.6788 24.8062 10.6878C27.2741 10.692 29.6393 11.6725 31.3863 13.4154C33.1841 15.1294 34.1834 17.5168 34.1435 20Z" fill="white"/>
<path d="M45.538 20C45.6809 10.6712 53.3599 3.22442 62.6888 3.36751C62.735 3.3683 62.7812 3.36909 62.8274 3.37041C68.0484 3.33688 73.0016 5.6786 76.2892 9.73477L71.7286 14.2954C69.6073 11.5033 66.3326 9.82558 62.8274 9.73477C57.1579 9.73477 52.5621 14.3306 52.5621 20C52.5621 25.6695 57.1579 30.2653 62.8274 30.2653C66.3989 30.2104 69.7512 28.5319 71.934 25.7047L76.5242 30.2653C73.1671 34.3632 68.1244 36.7068 62.8274 36.6292C53.4999 36.8491 45.7603 29.4659 45.5404 20.1384C45.5396 20.0924 45.5386 20.0462 45.538 20Z" fill="white"/>
<path d="M79.0757 4.05957H92.5083C98.8874 4.05957 102.774 7.93093 102.774 12.4768C102.801 15.3748 101.058 17.9966 98.3739 19.0907C101.813 20.1108 104.189 23.2474 104.24 26.8339C104.24 31.8489 100.134 35.9405 93.3003 35.9405H79.0757V4.05957ZM92.0537 16.363C93.8151 16.5705 95.411 15.3104 95.6183 13.5487C95.8258 11.7872 94.5657 10.1913 92.804 9.98383C92.5548 9.95452 92.3026 9.95452 92.0534 9.98383H85.9095V16.363H92.0537ZM92.9629 30.0302C95.7048 30.0302 97.362 28.4319 97.362 26.1441C97.362 23.8567 95.7785 22.2727 92.9629 22.2727H85.9095V30.0302H92.9629Z" fill="white"/>
<path d="M105.178 31.6143L109.739 27.0679C111.646 29.2171 114.374 30.4585 117.247 30.4849C120.899 30.4849 122.483 28.8863 122.483 26.8334C122.483 21.3633 106.543 23.9003 106.543 12.7113C106.543 7.69602 110.942 3.37005 118.157 3.37005C122.182 3.28029 126.062 4.87488 128.862 7.76942L124.316 12.3301C122.81 10.6634 120.694 9.67474 118.45 9.58761C115.033 9.58761 113.669 10.9662 113.669 12.7844C113.669 18.2546 129.61 15.7175 129.61 26.9066C129.61 32.1418 125.049 36.7024 117.541 36.7024C112.883 36.8492 108.384 34.9978 105.178 31.6143Z" fill="white"/>
<path d="M140.945 4.05957H147.089L162.546 23.8712V4.05957H169.379V35.9402H163.22L147.779 16.1283V35.9402H140.945V4.05957Z" fill="white"/>
<path d="M174.058 4.05957H197.741V10.4387H180.877V16.5829H194.075V22.7276H180.877V29.5756H198.195V35.9399H174.058V4.05957Z" fill="white"/>
<path d="M199.809 4.05957H206.862L213.476 25.4695H213.696L220.31 4.05957H226.689L233.288 25.4695H233.523L240.122 4.05957H247.19L236.704 35.9402H230.106L223.638 15.2193H223.36L216.893 35.9402H210.279L199.809 4.05957Z" fill="white"/>
<path d="M246.691 31.6143L251.252 27.0679C253.159 29.2171 255.887 30.4585 258.76 30.4849C262.411 30.4849 263.995 28.8863 263.995 26.8334C263.995 21.3633 248.055 23.9003 248.055 12.7113C248.055 7.69602 252.381 3.37005 259.668 3.37005C263.694 3.28029 267.575 4.87488 270.374 7.76942L265.828 12.3301C264.321 10.6634 262.207 9.67474 259.962 9.58761C256.546 9.58761 255.181 10.9662 255.181 12.7844C255.181 18.2546 271.122 15.7175 271.122 26.9066C271.122 32.1418 266.561 36.7024 259.053 36.7024C254.395 36.8492 249.896 34.9978 246.691 31.6143Z" fill="white"/>
</svg>
