<svg width="87" height="40" viewBox="0 0 87 40" fill="none" xmlns="http://www.w3.org/2000/svg">
<g clip-path="url(#clip0_4008_160)">
<path d="M27.4486 0.0202276C27.4486 0.00219727 19.994 0.0202276 19.994 0.0202276C8.95961 0.0202276 0.0141602 8.96568 0.0141602 20.0001C0.0141602 31.0345 8.95961 39.9799 19.994 39.9799L34.0103 39.9682C37.5316 39.9682 40.3861 37.1359 40.3861 33.6145L40.3936 21.4283L50.0815 36.7087C51.3917 38.6916 53.6407 39.9998 56.1954 39.9998C60.2395 39.9998 63.5182 36.7212 63.5182 32.6769L63.5161 21.4282L73.204 36.7085C74.5142 38.6915 76.7632 39.9996 79.3179 39.9996C83.362 39.9996 86.6407 36.7211 86.6407 32.6768L86.6386 0.00219727H81.6538V32.6772C81.6538 33.9672 80.608 35.0129 79.318 35.0129C78.5118 35.0129 77.8009 34.6046 77.3812 33.9831L60.1378 6.82212C60.0309 6.66669 59.8771 6.54953 59.6989 6.48777C59.5207 6.426 59.3274 6.42287 59.1473 6.47884C58.9672 6.53481 58.8097 6.64693 58.6978 6.79882C58.586 6.95071 58.5257 7.13439 58.5258 7.32301L58.5313 32.6773C58.5313 33.9673 57.4855 35.0131 56.1955 35.0131C55.3893 35.0131 54.6785 34.6047 54.2587 33.9833L37.0153 6.82212C36.9084 6.66672 36.7546 6.54959 36.5764 6.48784C36.3982 6.4261 36.2049 6.42298 36.0248 6.47894C35.8446 6.5349 35.6872 6.64701 35.5753 6.79887C35.4635 6.95074 35.4031 7.1344 35.4031 7.32301L35.3993 33.6147C35.3993 34.3819 34.7776 35.0035 34.0105 35.0035L19.9941 34.993C11.7139 34.9928 5.00126 28.2802 5.00126 20.0001C5.00126 11.72 11.7139 5.0072 19.994 5.0072L27.4486 5.0017V0.0202276Z" fill="white"/>
<path d="M28.2522 28.5887C28.4406 28.5887 28.6213 28.5139 28.7544 28.3807C28.8876 28.2475 28.9625 28.0669 28.9625 27.8785L28.9644 7.32273C28.9643 3.2787 32.2428 0 36.287 0C38.8507 0 41.107 1.31762 42.4151 3.31259L52.0694 18.4573L52.0868 7.32285C52.0868 3.2787 55.3652 0 59.4095 0C61.9732 0 64.2293 1.31762 65.5376 3.31259L75.1917 18.4573V0.00217386H80.2108L80.2019 32.6771C80.2018 32.8626 80.1434 33.0434 80.0349 33.1938C79.9265 33.3443 79.7734 33.4568 79.5974 33.5154C79.4215 33.5741 79.2315 33.5759 79.0545 33.5206C78.8774 33.4653 78.7223 33.3557 78.611 33.2073L61.3463 6.01687C60.9266 5.39566 60.2157 4.9871 59.4095 4.9871C58.1195 4.9871 57.0737 6.03286 57.0737 7.32285L57.0794 32.6771C57.0793 32.8626 57.0208 33.0434 56.9123 33.1938C56.8038 33.3442 56.6508 33.4567 56.4748 33.5153C56.2989 33.574 56.1089 33.5758 55.9319 33.5205C55.7548 33.4652 55.5997 33.3557 55.4883 33.2073L38.2239 6.01687C37.8041 5.39566 37.0934 4.9871 36.287 4.9871C34.9971 4.9871 33.9514 6.03286 33.9514 7.32285L33.9618 32.878C33.9618 33.0664 33.887 33.247 33.7538 33.3802C33.6206 33.5134 33.44 33.5882 33.2516 33.5882L19.9941 33.5856C12.5158 33.5856 6.45325 27.4784 6.45325 20.0002C6.45325 12.5218 12.5158 6.41456 19.9941 6.41456C19.9941 6.41456 27.4487 6.38553 27.4487 6.41456V11.4519L19.9941 11.4463C15.2701 11.4463 11.4403 15.276 11.4403 20.0002C11.4403 24.7241 15.2701 28.5985 19.9941 28.5985L28.2522 28.5887Z" fill="white"/>
</g>
<defs>
<clipPath id="clip0_4008_160">
<rect width="86.6551" height="40" fill="white"/>
</clipPath>
</defs>
</svg>
