<svg width="50" height="50" viewBox="0 0 50 50" fill="none" xmlns="http://www.w3.org/2000/svg">
<rect width="50" height="50" rx="25" fill="#00BBE4"/>
<g clip-path="url(#clip0_0_1421)">
<path d="M14.2792 22.4455C14.3641 22.4801 14.454 22.4973 14.5439 22.4973C14.6369 22.4973 14.73 22.4788 14.8173 22.4418L16.9205 21.5543C17.2781 21.4033 17.4458 20.9909 17.2947 20.6331C17.1438 20.2753 16.7313 20.1078 16.3735 20.2587L15.8592 20.4758C17.4553 16.8423 21.0669 14.4531 25.0853 14.4531C29.6798 14.4531 33.692 17.5599 34.8423 22.0081C34.9243 22.325 35.2096 22.5354 35.5225 22.5354C35.5808 22.5354 35.6401 22.5281 35.699 22.5129C36.075 22.4157 36.3009 22.0321 36.2037 21.6561C34.893 16.587 30.3209 13.0469 25.0853 13.0469C20.4804 13.0469 16.3448 15.8004 14.5415 19.9802L14.3042 19.4177C14.1532 19.0601 13.7408 18.8923 13.383 19.0432C13.0252 19.1943 12.8577 19.6068 13.0086 19.9644L13.8961 22.0676C13.9686 22.2393 14.1063 22.3754 14.2792 22.4455Z" fill="white"/>
<path d="M36.8977 29.9863L36.0102 27.8833C35.9377 27.7114 35.7998 27.5755 35.6271 27.5052C35.4543 27.4351 35.2608 27.4364 35.089 27.5089L32.9858 28.3966C32.6282 28.5475 32.4605 28.96 32.6116 29.3178C32.7625 29.6756 33.175 29.8431 33.5328 29.6921L34.1215 29.4436C32.5653 33.1745 28.9031 35.6402 24.8212 35.6402C20.2265 35.6402 16.2143 32.5335 15.064 28.0853C14.9668 27.7092 14.5832 27.4836 14.2073 27.5805C13.8313 27.6777 13.6054 28.0613 13.7026 28.4372C15.0133 33.5063 19.5854 37.0465 24.8212 37.0465C29.4519 37.0465 33.6082 34.2618 35.395 30.0423L35.6021 30.5331C35.7154 30.8017 35.976 30.963 36.2503 30.963C36.3413 30.963 36.4341 30.9452 36.5233 30.9075C36.8811 30.7565 37.0486 30.3441 36.8977 29.9863Z" fill="white"/>
<path d="M23.5432 32.7862C23.621 32.8144 23.7016 32.8278 23.7812 32.8278C23.9869 32.8278 24.187 32.7375 24.3232 32.5727L30.2134 25.4479C30.387 25.2379 30.4236 24.9467 30.3077 24.7003C30.1916 24.454 29.9438 24.2967 29.6716 24.2967H27.1094V17.9219C27.1094 17.6253 26.9233 17.3607 26.6443 17.2601C26.3654 17.1598 26.0534 17.2453 25.8642 17.4738L19.9741 24.5987C19.8005 24.8085 19.7639 25.0998 19.8798 25.3461C19.9959 25.5926 20.2438 25.7498 20.5161 25.7498H23.0783V32.1247C23.0781 32.4213 23.2641 32.6859 23.5432 32.7862ZM22.0095 24.3436L25.7031 19.8758V24.9998C25.7031 25.3882 26.0179 25.703 26.4062 25.703H28.1778L24.4844 30.1707V25.0467C24.4844 24.6583 24.1694 24.3436 23.7812 24.3436H22.0095Z" fill="white"/>
</g>
<defs>
<clipPath id="clip0_0_1421">
<rect width="24" height="24" fill="white" transform="translate(13 13)"/>
</clipPath>
</defs>
</svg>
