<svg width="148" height="40" viewBox="0 0 148 40" fill="none" xmlns="http://www.w3.org/2000/svg">
<path d="M141.79 19.6391L140.54 19.9792C139.339 15.898 137.326 14.1347 134.485 14.1347C132.488 14.1347 131.084 15.45 131.084 17.5356C131.084 19.5319 132.74 20.5964 137.188 22.4057C141.295 23.9158 143 25.7659 143 28.9968C143 33.9154 139.136 37 132.797 37C129.736 37 126.287 36.3181 124.338 35.5393L124.095 28.7051L125.297 28.462C127.099 33.1382 129.403 34.9067 132.407 34.9067C135.005 34.9067 136.37 33.1042 136.37 31.2541C136.37 29.404 135.315 28.3319 131.256 26.8712C127.392 25.5958 124.746 23.9489 124.746 19.8423C124.746 15.8003 128.301 12.3747 134.357 12.3747C137.214 12.3747 139.811 12.8619 141.516 13.65L141.79 19.6391ZM115.636 21.7817C115.782 18.5678 115.132 13.9255 112.486 13.9255C109.766 13.9255 108.282 18.26 108.233 21.9772L115.636 21.7817ZM113.136 12.3662C119.792 12.3662 122.999 17.2363 123.055 23.6318H108.087C108.039 29.2969 111.042 33.5829 116.658 33.5829C119.109 33.5829 120.521 32.901 122.015 31.8297L122.712 32.6085C121.056 34.8489 117.647 36.9915 113.101 36.9915C105.796 36.9915 100.73 31.9751 100.73 24.8978C100.713 18.5015 104.871 12.3653 113.133 12.3653M91.5444 24.2176C91.3982 19.1527 89.548 15.143 85.9922 15.143C85.1478 15.143 84.4982 15.2893 83.4924 15.6302L83.7849 35.0946C84.142 35.2409 84.9863 35.3378 85.5874 35.3378C89.0455 35.3378 91.5452 30.4515 91.5452 24.2167M98.9647 23.8273C98.9647 31.8306 93.8996 36.9923 85.3434 36.9923C82.2824 36.9923 79.1254 36.5052 76.3816 35.8726C76.6248 32.6587 76.6248 12.7462 76.3816 9.0052C76.1384 7.04966 75.5857 6.13141 74.0859 5.94436L73.0792 5.84658V4.95384L83.6378 3C83.5893 4.65541 83.4915 9.00605 83.4915 14.1211C85.3426 13.196 87.0456 12.6604 89.3524 12.6604C94.8562 12.6604 98.963 17.3366 98.963 23.829M72.0639 19.4775C68.8006 17.3349 65.2941 18.26 64.5961 19.4775C64.2874 23.2186 64.3529 29.0002 64.6445 31.9615C64.7908 33.9171 65.3417 34.7375 66.8527 34.8838L68.8491 35.0793V36.3547H53.9295V35.0793L55.0824 34.8838C56.5279 34.7375 57.038 33.9094 57.1282 31.9615C57.4853 28.7961 57.583 22.1566 57.1282 18.504C57.0304 16.4099 56.5279 15.6302 55.0824 15.4432L53.9295 15.2969V14.4212L64.5952 12.3755L64.449 17.8298C66.9487 12.1808 71.9168 11.4989 74.6113 13.009L72.0639 19.4775ZM37.0627 24.7048C37.0627 30.6624 38.6782 35.5325 41.9092 35.5325C45.4157 35.5325 46.4224 30.7601 46.4224 24.7048C46.4224 18.6494 44.8716 13.9255 41.5751 13.9255C38.0524 13.9255 37.0627 18.5525 37.0627 24.7048ZM53.9779 24.607C53.9779 31.4412 49.4647 36.9932 41.4127 36.9932C33.4907 36.9932 29.497 31.7175 29.497 24.8008C29.497 18.016 34.0103 12.3662 42.0623 12.3662C49.9842 12.3662 53.9779 17.675 53.9779 24.607ZM33.2476 12.8627L31.5921 13.3499C30.196 8.56138 27.7285 5.83383 23.4746 5.83383H17.9224C17.6137 9.0154 17.4675 13.934 17.6137 19.242L21.3149 19.0465C23.8147 19.0465 24.869 17.244 25.471 14.615H26.8672V25.6851H25.471C24.8707 23.0069 23.8156 21.1789 21.3149 21.0428L17.6137 20.9943C17.6137 24.9394 17.6622 28.3064 17.9224 30.3614C18.1655 33.2836 18.9767 34.6142 21.1194 34.8906L23.1328 35.0861V36.3615H5V35.0861L6.51007 34.8906C8.60428 34.5981 9.46475 33.2751 9.70708 30.3614C10.1127 25.589 10.2104 15.3939 9.70708 9.72875C9.4639 6.71042 8.60343 5.49204 6.51007 5.24802L5 5.00485V3.68869H33.1999L33.2476 12.8627Z" fill="white"/>
</svg>
