<svg width="259" height="40" viewBox="0 0 259 40" fill="none" xmlns="http://www.w3.org/2000/svg">
<g clip-path="url(#clip0_4008_147)">
<path fill-rule="evenodd" clip-rule="evenodd" d="M194.528 5.21316L208.527 36L214.669 23.3881L220.808 36L234.56 5.21316H227.56L220.191 22.0281L217.491 16.3407L222.648 5.33604L216.14 5.21175L214.666 9.2919L212.703 5.21175H206.437L211.473 16.0921L208.892 21.9052L201.035 5.21316H194.528ZM66 4.00141L84.243 21.3219V5.10442H90.1463V35.1456L71.9426 17.4847V34.1569H66V4.00141ZM93.4535 5.18351H105.907C107.81 5.18351 113.22 6.641 113.41 12.5077C113.563 16.8774 109.985 18.9125 109.985 18.9125C111.927 19.8333 114.897 22.0944 114.897 26.6957C114.897 31.184 110.976 34.4804 107.621 34.4804H93.4535V5.18068V5.18351ZM99.4326 16.9946H103.966C105.755 16.763 107.126 15.3832 107.126 13.4285C107.126 11.3567 105.335 10.2085 103.851 10.0913H99.4326V16.9946ZM99.4691 29.7661H104.726C106.06 29.6475 108.342 28.5007 108.342 25.854C108.342 23.2836 106.095 22.0563 104.876 22.0168H99.4677V29.7647L99.4691 29.7661ZM137.44 11.4541C131.195 7.27372 122.74 11.5304 122.206 19.2755C121.976 28.6744 131.192 32.5469 137.44 28.4809V34.503C126.395 38.6438 116.265 30.8211 116.227 19.469C116.265 9.84411 126.815 1.33073 137.44 5.58601V11.4541ZM245.304 23.576C236.497 17.664 237.201 18.2897 236.557 17.2686C235.911 16.2489 234.07 10.9641 238.305 6.41786C242.54 1.87448 251.106 5.76962 251.106 5.76962V11.6123C251.106 11.6123 243.829 7.34575 241.806 11.2409C239.779 15.136 247.33 17.4522 247.33 17.4522C247.33 17.4522 252.395 20.4209 252.855 23.6649C253.315 26.9118 252.945 33.4028 247.79 34.6075C247.79 34.6075 242.815 37.3911 236.093 33.8688L236.186 27.2847C236.186 27.2847 239.04 30.4369 243.094 30.2533C247.146 30.0655 248.343 25.6167 245.305 23.5774L245.304 23.576ZM176.88 4.97448V34.4634H192.904L192.998 29.5486H183.213V22.4998H192.998V17.0285H183.213V10.4458H192.998V4.97448H176.88ZM149.919 4.06214L168.16 21.5521V5.17362H174.064V35.5057L155.857 17.6768V34.5128H149.919V4.06214Z" fill="white"/>
<path fill-rule="evenodd" clip-rule="evenodd" d="M50.182 22.2592L35 32L40.114 20.3378L42.5384 14.9069C43.5209 13.1514 45.372 12.0318 47.3916 12C49.3248 12 51.0391 12.8929 52.1282 14.495C53.2475 16.097 53.3108 18.7164 52.1915 20.3364C51.6668 21.1019 50.9838 21.7559 50.1849 22.2578L50.182 22.2592Z" fill="white"/>
<path fill-rule="evenodd" clip-rule="evenodd" d="M42.5483 12.691L35.0501 30L34.7163 28.1119L32.4619 13.923C32.4099 13.5221 32.4741 13.1149 32.6473 12.7478C32.8205 12.3808 33.0957 12.0685 33.4417 11.8467L34.5192 11.2215C34.5825 11.0038 34.2689 10.9293 34.1221 10.8549L32.0131 10.8352C31.8778 8.78833 32.7957 6.93394 34.571 5.81568C35.9492 4.93906 38.0482 4.71008 39.5847 5.41952C41.5772 6.21326 42.9669 8.28821 43 10.4067C42.9899 11.1892 42.8533 11.9928 42.5511 12.6924L42.5483 12.691Z" fill="white"/>
<path fill-rule="evenodd" clip-rule="evenodd" d="M28.8117 30L21.4233 12.6789C20.6299 10.8237 20.964 8.38649 22.3233 6.88884C23.7762 5.31547 25.8252 4.64938 27.9347 5.17945C29.7217 5.60714 31.3935 7.27307 31.8341 9.05398C32.0414 9.72147 32.0112 10.5236 31.9709 11.2514L28.8145 30H28.8117Z" fill="white"/>
<path fill-rule="evenodd" clip-rule="evenodd" d="M13.0334 21.6269C11.5036 20.3658 10.8207 18.6839 11.0401 16.7384C11.2624 14.7709 12.8968 12.8433 14.8465 12.2514C16.85 11.6567 19.0321 12.1272 20.4879 13.5539C21.0981 14.1072 21.4772 14.764 21.794 15.4401L29 32L13.0334 21.6297V21.6269Z" fill="white"/>
<path fill-rule="evenodd" clip-rule="evenodd" d="M11.7815 33.993C9.89062 33.7776 8.43523 32.7411 7.54629 30.9827C6.64632 29.2062 6.87924 26.6884 8.09068 25.1147C9.40825 23.5117 11.3157 22.7045 13.2383 23.099C14.0211 23.2277 14.6771 23.569 15.2959 23.9649L30 34L11.7815 33.993Z" fill="white"/>
<path fill-rule="evenodd" clip-rule="evenodd" d="M52.2194 33.993C54.1103 33.7776 55.5656 32.7411 56.4545 30.9827C57.3545 29.2062 57.1188 26.6884 55.9102 25.1147C54.5926 23.5117 52.6852 22.7045 50.7627 23.099C49.9799 23.2277 49.3239 23.569 48.7051 23.9649L34 34L52.2167 33.9944L52.2194 33.993Z" fill="white"/>
</g>
<defs>
<clipPath id="clip0_4008_147">
<rect width="259" height="40" fill="white"/>
</clipPath>
</defs>
</svg>
