<svg width="50" height="50" viewBox="0 0 50 50" fill="none" xmlns="http://www.w3.org/2000/svg">
<rect width="50" height="50" rx="25" fill="#00BBE4"/>
<g clip-path="url(#clip0_0_1433)">
<path d="M36.25 22.1875H35.3031C35.6974 21.7239 35.9507 21.1571 36.0331 20.5542C36.1156 19.9513 36.0237 19.3373 35.7683 18.7849C35.513 18.2325 35.1048 17.7648 34.5921 17.437C34.0794 17.1091 33.4836 16.9349 32.875 16.9349C32.2664 16.9349 31.6706 17.1091 31.1579 17.437C30.6452 17.7648 30.237 18.2325 29.9817 18.7849C29.7263 19.3373 29.6344 19.9513 29.7169 20.5542C29.7993 21.1571 30.0526 21.7239 30.4469 22.1875H29.5C29.3508 22.1875 29.2077 22.2467 29.1023 22.3522C28.9968 22.4577 28.9375 22.6008 28.9375 22.75V23.875C28.9383 24.5212 29.1954 25.1407 29.6523 25.5977C30.1093 26.0546 30.7288 26.3117 31.375 26.3125H32.3125V27.5421C32.3126 27.6744 32.266 27.8025 32.1809 27.9039C32.0959 28.0053 31.9778 28.0734 31.8475 28.0963L27.8395 28.8028C27.5295 28.1948 27.0325 27.7023 26.4217 27.3979C25.8108 27.0934 25.1184 26.9931 24.4462 27.1116C23.7741 27.2301 23.1577 27.5612 22.6879 28.0563C22.218 28.5513 21.9195 29.1841 21.8361 29.8615L18.3486 30.4765C18.2678 30.4921 18.1845 30.4892 18.105 30.468C18.0255 30.4467 17.9519 30.4077 17.8896 30.3538C17.8263 30.3014 17.7755 30.2355 17.7407 30.161C17.706 30.0865 17.6882 30.0052 17.6886 29.923V28.9375H18.625C19.2712 28.9367 19.8907 28.6796 20.3477 28.2227C20.8046 27.7657 21.0617 27.1462 21.0625 26.5V25.375C21.0625 25.2258 21.0032 25.0827 20.8977 24.9772C20.7923 24.8717 20.6492 24.8125 20.5 24.8125H19.5531C19.9474 24.3489 20.2007 23.7821 20.2831 23.1792C20.3656 22.5763 20.2737 21.9623 20.0183 21.4099C19.763 20.8575 19.3548 20.3898 18.8421 20.062C18.3294 19.7341 17.7336 19.5599 17.125 19.5599C16.5164 19.5599 15.9206 19.7341 15.4079 20.062C14.8952 20.3898 14.487 20.8575 14.2317 21.4099C13.9763 21.9623 13.8844 22.5763 13.9669 23.1792C14.0493 23.7821 14.3026 24.3489 14.6969 24.8125H13.75C13.6008 24.8125 13.4577 24.8717 13.3523 24.9772C13.2468 25.0827 13.1875 25.2258 13.1875 25.375V26.5C13.1883 27.1462 13.4454 27.7657 13.9023 28.2227C14.3593 28.6796 14.9788 28.9367 15.625 28.9375H16.5625V29.923C16.5625 30.3705 16.7403 30.7997 17.0568 31.1162C17.3732 31.4327 17.8024 31.6105 18.25 31.6105C18.3488 31.6104 18.4474 31.6018 18.5448 31.585L21.8125 31.0082V35.3125H19.75C19.6008 35.3125 19.4577 35.3717 19.3523 35.4772C19.2468 35.5827 19.1875 35.7258 19.1875 35.875C19.1875 36.0242 19.2468 36.1672 19.3523 36.2727C19.4577 36.3782 19.6008 36.4375 19.75 36.4375H30.25C30.3992 36.4375 30.5423 36.3782 30.6477 36.2727C30.7532 36.1672 30.8125 36.0242 30.8125 35.875C30.8125 35.7258 30.7532 35.5827 30.6477 35.4772C30.5423 35.3717 30.3992 35.3125 30.25 35.3125H28.1875V30.25C28.1875 30.1289 28.1806 30.008 28.1669 29.8877L32.0429 29.2045C32.4339 29.136 32.7882 28.9317 33.0433 28.6276C33.2985 28.3235 33.4381 27.9391 33.4375 27.5421V26.3125H34.375C35.0212 26.3117 35.6407 26.0546 36.0977 25.5977C36.5546 25.1407 36.8117 24.5212 36.8125 23.875V22.75C36.8125 22.6008 36.7532 22.4577 36.6477 22.3522C36.5423 22.2467 36.3992 22.1875 36.25 22.1875ZM17.125 20.6875C17.5329 20.6875 17.9317 20.8084 18.2709 21.0351C18.61 21.2617 18.8744 21.5838 19.0305 21.9607C19.1866 22.3376 19.2275 22.7523 19.1479 23.1523C19.0683 23.5524 18.8719 23.9199 18.5834 24.2084C18.295 24.4968 17.9275 24.6933 17.5274 24.7728C17.1273 24.8524 16.7126 24.8116 16.3357 24.6555C15.9588 24.4994 15.6367 24.235 15.4101 23.8958C15.1835 23.5567 15.0625 23.1579 15.0625 22.75C15.0632 22.2032 15.2807 21.679 15.6674 21.2923C16.054 20.9057 16.5782 20.6882 17.125 20.6875ZM15.625 27.8125C15.2769 27.8125 14.9431 27.6742 14.6969 27.428C14.4508 27.1819 14.3125 26.8481 14.3125 26.5V25.9375H19.9375V26.5C19.9375 26.8481 19.7992 27.1819 19.5531 27.428C19.3069 27.6742 18.9731 27.8125 18.625 27.8125H15.625ZM27.0625 35.3125H22.9375V30.25C22.9375 29.703 23.1548 29.1784 23.5416 28.7916C23.9284 28.4048 24.453 28.1875 25 28.1875C25.547 28.1875 26.0716 28.4048 26.4584 28.7916C26.8452 29.1784 27.0625 29.703 27.0625 30.25V35.3125ZM32.875 18.0625C33.2829 18.0625 33.6817 18.1834 34.0209 18.4101C34.36 18.6367 34.6244 18.9588 34.7805 19.3357C34.9366 19.7126 34.9775 20.1273 34.8979 20.5273C34.8183 20.9274 34.6219 21.2949 34.3334 21.5834C34.045 21.8718 33.6775 22.0683 33.2774 22.1478C32.8773 22.2274 32.4626 22.1866 32.0857 22.0305C31.7088 21.8744 31.3867 21.61 31.1601 21.2708C30.9335 20.9317 30.8125 20.5329 30.8125 20.125C30.8132 19.5782 31.0307 19.054 31.4174 18.6673C31.804 18.2807 32.3282 18.0632 32.875 18.0625ZM35.6875 23.875C35.6875 24.2231 35.5492 24.5569 35.3031 24.803C35.0569 25.0492 34.7231 25.1875 34.375 25.1875H31.375C31.0269 25.1875 30.6931 25.0492 30.4469 24.803C30.2008 24.5569 30.0625 24.2231 30.0625 23.875V23.3125H35.6875V23.875Z" fill="white"/>
<path d="M23.125 16.5625C23.2742 16.5625 23.4173 16.5032 23.5227 16.3977C23.6282 16.2922 23.6875 16.1492 23.6875 16C23.6877 15.7627 23.7521 15.53 23.874 15.3265C23.9959 15.1229 24.1707 14.9563 24.3797 14.8442C24.5888 14.732 24.8244 14.6787 25.0613 14.6898C25.2983 14.7009 25.5279 14.776 25.7256 14.9071C25.9232 15.0383 26.0817 15.2205 26.184 15.4346C26.2864 15.6486 26.3288 15.8863 26.3068 16.1225C26.2848 16.3588 26.1992 16.5846 26.0591 16.776C25.919 16.9675 25.7296 17.1173 25.5111 17.2097C25.1867 17.3532 24.9118 17.5891 24.7209 17.888C24.5299 18.1869 24.4313 18.5355 24.4375 18.8901V20.125C24.4375 20.2742 24.4968 20.4172 24.6023 20.5227C24.7077 20.6282 24.8508 20.6875 25 20.6875C25.1492 20.6875 25.2923 20.6282 25.3977 20.5227C25.5032 20.4172 25.5625 20.2742 25.5625 20.125V18.8901C25.5579 18.7567 25.592 18.6248 25.6608 18.5103C25.7295 18.3959 25.8299 18.3037 25.9499 18.2451C26.3556 18.0734 26.7073 17.7949 26.9674 17.4393C27.2275 17.0837 27.3864 16.6642 27.4271 16.2255C27.4678 15.7868 27.3888 15.3452 27.1986 14.9478C27.0083 14.5504 26.7139 14.212 26.3466 13.9686C25.9794 13.7251 25.553 13.5858 25.1129 13.5654C24.6727 13.545 24.2353 13.6443 23.8471 13.8527C23.4589 14.0611 23.1344 14.3708 22.9082 14.7489C22.682 15.127 22.5626 15.5594 22.5625 16C22.5625 16.1492 22.6218 16.2922 22.7273 16.3977C22.8327 16.5032 22.9758 16.5625 23.125 16.5625Z" fill="white"/>
<path d="M25 22.9375C25.3107 22.9375 25.5625 22.6857 25.5625 22.375C25.5625 22.0643 25.3107 21.8125 25 21.8125C24.6893 21.8125 24.4375 22.0643 24.4375 22.375C24.4375 22.6857 24.6893 22.9375 25 22.9375Z" fill="white"/>
<path d="M25 30.8125C25.3107 30.8125 25.5625 30.5607 25.5625 30.25C25.5625 29.9393 25.3107 29.6875 25 29.6875C24.6893 29.6875 24.4375 29.9393 24.4375 30.25C24.4375 30.5607 24.6893 30.8125 25 30.8125Z" fill="white"/>
</g>
<defs>
<clipPath id="clip0_0_1433">
<rect width="24" height="24" fill="white" transform="translate(13 13)"/>
</clipPath>
</defs>
</svg>
