<svg width="50" height="50" viewBox="0 0 50 50" fill="none" xmlns="http://www.w3.org/2000/svg">
<rect width="50" height="50" rx="25" fill="#00BBE4"/>
<path d="M34.6854 23.4428C34.3796 22.7182 33.8668 22.0999 33.2113 21.6654C32.5557 21.2309 31.7866 20.9995 31.0001 21.0001H27.1531L27.5009 18.5654C27.5823 17.998 27.5408 17.4197 27.3791 16.8698C27.2175 16.3198 26.9394 15.8111 26.5638 15.3781C26.1882 14.945 25.7239 14.5978 25.2023 14.36C24.6807 14.1222 24.1141 13.9994 23.5409 13.9998H22.8673C22.3856 14.0001 21.9202 14.1741 21.5565 14.4898C21.1928 14.8056 20.9552 15.2419 20.8873 15.7187L20.1326 21.0015H16.0001C15.7352 21.0015 15.4811 21.1067 15.2936 21.2939C15.1061 21.4811 15.0006 21.735 15.0002 22V33.0001C15.0002 33.2653 15.1056 33.5196 15.2931 33.7071C15.4806 33.8946 15.7349 34 16.0001 34H30.0002C30.657 34.0004 31.3073 33.8714 31.9142 33.6202C32.521 33.3691 33.0723 33.0008 33.5367 32.5364C34.001 32.072 34.3693 31.5206 34.6204 30.9138C34.8714 30.3069 35.0004 29.6565 34.9999 28.9998V25C35.0008 24.465 34.8938 23.9354 34.6854 23.4428ZM16.9999 22.9998H19.9999V31.9998H16.9999V22.9998ZM33.0002 28.9998C32.9994 29.7952 32.683 30.5578 32.1206 31.1202C31.5582 31.6826 30.7956 31.9989 30.0002 31.9998H22.0001V22.0712L22.8673 16H23.5409C23.8274 15.9999 24.1107 16.0614 24.3714 16.1804C24.6321 16.2993 24.8642 16.4729 25.052 16.6894C25.2397 16.9059 25.3788 17.1602 25.4597 17.4351C25.5406 17.71 25.5614 17.9991 25.5209 18.2828L25.0099 21.8593C24.9897 22.0012 25.0002 22.1457 25.0407 22.2831C25.0812 22.4205 25.1507 22.5477 25.2446 22.6559C25.3384 22.7641 25.4545 22.8509 25.5848 22.9104C25.7151 22.9699 25.8567 23.0007 25.9999 23.0008H31.0001C31.5302 23.0014 32.0385 23.2122 32.4134 23.5869C32.7883 23.9617 32.9994 24.4699 33.0002 25V28.9998Z" fill="white"/>
</svg>
