<svg width="219" height="40" viewBox="0 0 219 40" fill="none" xmlns="http://www.w3.org/2000/svg">
<path d="M23.58 38.768C33.9036 38.768 42.2725 30.3991 42.2725 20.0755C42.2725 9.75197 33.9036 1.38306 23.58 1.38306C13.2564 1.38306 4.88751 9.75197 4.88751 20.0755C4.88751 30.3991 13.2564 38.768 23.58 38.768Z" fill="white"/>
<path d="M50.5441 22.9413V9.65465H56.471V21.1828C56.471 23.4623 56.7315 25.6768 59.7275 25.6768C62.7236 25.6768 62.9841 23.4623 62.9841 21.1828V9.65465H68.911V22.8762C68.911 28.0215 65.6544 30.8221 59.7275 30.8221C53.6704 30.8872 50.5441 28.0215 50.5441 22.9413ZM70.4741 27.8261L73.3398 23.8531C74.3819 25.1557 76.2056 26.263 78.2246 26.263C79.7878 26.263 80.6996 25.6116 80.6996 24.3742C80.6996 22.9413 79.397 22.4854 77.1174 21.8341C74.1214 20.9222 71.4511 19.3591 71.4511 15.7769C71.4511 11.8691 74.7076 9.19873 79.2667 9.19873C82.4581 9.19873 84.8028 10.1757 86.366 11.6086L83.6956 15.5815C82.8489 14.6046 81.416 13.7579 79.5924 13.7579C78.0292 13.7579 77.3779 14.4092 77.3779 15.1907C77.3779 16.4934 78.9411 16.819 80.6345 17.4052C84.0213 18.4473 86.6265 20.0104 86.6265 23.8531C86.6265 27.8261 83.7607 30.8221 78.5503 30.8221C74.7076 30.8872 71.7767 29.259 70.4741 27.8261Z" fill="white"/>
<path d="M94.5723 9.65454H101.085L108.836 30.4312H102.649L101.672 27.4352H93.8559L92.8789 30.4312H86.8218C86.8869 30.4312 94.5723 9.65454 94.5723 9.65454V9.65454ZM100.174 22.7458L98.5453 17.7307C98.2196 16.7538 97.9591 15.5163 97.8288 14.6045H97.6335C97.5032 15.5163 97.2427 16.7538 96.917 17.7307L95.2888 22.7458H100.174Z" fill="white"/>
<path d="M117.433 14.4741H112.288V9.65446H128.506V14.4741H123.36V30.4311H117.433V14.4741ZM128.896 20.0754C128.896 14.93 132.544 9.26367 140.294 9.26367C148.045 9.26367 151.692 14.9952 151.692 20.0754C151.692 25.1555 148.045 30.8219 140.294 30.8219C132.544 30.887 128.896 25.2207 128.896 20.0754ZM145.635 20.0754C145.635 16.3629 143.225 14.409 140.294 14.409C137.428 14.409 135.019 16.3629 135.019 20.0754C135.019 23.7878 137.428 25.6766 140.294 25.6766C143.16 25.6766 145.635 23.7878 145.635 20.0754ZM153.841 9.65446H161.527C168.886 9.65446 173.055 13.5623 173.055 20.0754C173.055 26.4582 168.756 30.4962 161.527 30.4962H153.841V9.65446ZM159.833 25.6766H161.136C164.979 25.6766 166.998 23.8529 166.998 20.0754C166.998 16.2978 164.979 14.4741 161.136 14.4741H159.833V25.6766Z" fill="white"/>
<path d="M179.959 9.65454H186.472L194.222 30.4312H188.035L187.058 27.4352H179.242L178.265 30.4312H172.208C172.273 30.4312 179.959 9.65454 179.959 9.65454V9.65454ZM185.56 22.7458L183.932 17.7307C183.606 16.7538 183.345 15.5163 183.215 14.6045H183.02C182.89 15.5163 182.629 16.7538 182.303 17.7307L180.675 22.7458H185.56Z" fill="white"/>
<path d="M197.088 23.0715L189.337 9.71973H195.851L198.651 14.865C199.237 15.9723 200.084 17.6005 200.279 18.7078H200.41C200.605 17.6005 201.387 15.9723 202.038 14.865L204.839 9.71973H211.156L203.406 23.0715V30.4964H197.153V23.0715H197.088Z" fill="white"/>
</svg>
